<svg width="40" height="40" viewBox="0 0 40 40" fill="none" xmlns="http://www.w3.org/2000/svg">
    <path
        d="M16.2531 3.90162C16.2531 4.18517 16.4043 4.44719 16.6499 4.58897L18.1263 5.44135C18.7312 5.79061 19.0337 5.96524 19.3506 6.05041C19.7756 6.16464 20.2233 6.16464 20.6483 6.05041C20.9653 5.96524 21.2677 5.7906 21.8727 5.44134L23.175 4.68944C23.5283 4.48549 23.7459 4.10858 23.7459 3.70068M31.919 8.39907C31.6117 8.57651 31.4223 8.90444 31.4223 9.25932V10.8488C31.4223 11.5473 31.4223 11.8966 31.507 12.2136C31.6206 12.6388 31.8445 13.0265 32.1559 13.3375C32.3881 13.5694 32.6906 13.744 33.2955 14.0933L34.626 14.8614C34.9618 15.0553 35.3756 15.0553 35.7115 14.8614M35.5651 25.0696C35.3198 24.9279 35.0176 24.9279 34.7724 25.0696L33.2955 25.9222C32.6906 26.2715 32.3881 26.4461 32.1559 26.678C31.8445 26.9889 31.6206 27.3766 31.507 27.8018C31.4223 28.1189 31.4223 28.4682 31.4223 29.1667V30.4246C31.4223 30.8827 31.6222 31.3123 31.9605 31.6068M23.7459 36.2129C23.7459 35.5721 23.404 34.9799 22.849 34.6595L21.8727 34.0958C21.2677 33.7466 20.9653 33.5719 20.6483 33.4868C20.2233 33.3725 19.7756 33.3725 19.3506 33.4868C19.0337 33.5719 18.7312 33.7466 18.1263 34.0958L17.3728 34.5308C16.7451 34.8933 16.3357 35.5342 16.2643 36.2465M7.63605 31.0654C8.21562 30.7307 8.57265 30.1123 8.57265 29.4431V28.3616C8.57265 27.6631 8.57265 27.3138 8.48795 26.9968C8.37436 26.5716 8.15053 26.1839 7.83908 25.8729C7.60685 25.641 7.30438 25.4664 6.69945 25.1171L5.76285 24.5764C5.18328 24.2418 4.46922 24.2418 3.88965 24.5764M4.36165 14.5208C4.65144 14.6881 5.00847 14.6881 5.29825 14.5208L6.70315 13.7097C7.30809 13.3604 7.61056 13.1858 7.84278 12.9539C8.15423 12.6429 8.37806 12.2552 8.49165 11.83C8.57635 11.513 8.57635 11.1637 8.57635 10.4652V9.38368C8.57635 8.96379 8.4358 8.56392 8.18793 8.24159M19.9997 26.071V32.6876M19.9997 6.13913V14.1667M25.7646 22.7421L31.4948 26.0504M8.50228 12.7763L14.9883 16.521M25.7644 16.0841L31.4945 12.7758M8.50254 26.0509L14.6353 22.5101M8.18793 8.24159C5.18751 11.2555 3.33301 15.4112 3.33301 20C3.33301 27.9205 8.85801 34.5506 16.2643 36.2465M8.18793 8.24159C11.2061 5.20983 15.3837 3.33334 19.9997 3.33334C29.2044 3.33334 36.6663 10.7953 36.6663 20C36.6663 24.5124 34.8731 28.6059 31.9605 31.6068M16.2643 36.2465C17.4651 36.5214 18.7154 36.6667 19.9997 36.6667C24.6921 36.6667 28.9316 34.7275 31.9605 31.6068M14.7421 19.2739V20.7261C14.7421 21.5674 14.7421 21.9881 14.8644 22.3647C14.9727 22.6979 15.1498 23.0046 15.3842 23.2649C15.6492 23.5592 16.0135 23.7695 16.7421 24.1902L17.9997 24.9163C18.7283 25.3369 19.0926 25.5473 19.4799 25.6296C19.8226 25.7024 20.1768 25.7024 20.5195 25.6296C20.9068 25.5473 21.2711 25.3369 21.9997 24.9163L23.2573 24.1902C23.9859 23.7695 24.3502 23.5592 24.6151 23.2649C24.8496 23.0046 25.0267 22.6979 25.1349 22.3647C25.2573 21.9881 25.2573 21.5674 25.2573 20.7261V19.2739C25.2573 18.4326 25.2573 18.0119 25.1349 17.6354C25.0267 17.3022 24.8496 16.9954 24.6151 16.7351C24.3502 16.4408 23.9859 16.2305 23.2573 15.8098L21.9997 15.0837C21.2711 14.6631 20.9068 14.4528 20.5195 14.3704C20.1768 14.2976 19.8226 14.2976 19.4799 14.3704C19.0926 14.4528 18.7283 14.6631 17.9997 15.0837L16.7421 15.8098C16.0135 16.2305 15.6492 16.4408 15.3842 16.7351C15.1498 16.9954 14.9727 17.3022 14.8644 17.6354C14.7421 18.0119 14.7421 18.4326 14.7421 19.2739Z"
        stroke="#2C2B38" stroke-width="3" stroke-linecap="round" stroke-linejoin="round" />
</svg>