<svg width="40" height="40" viewBox="0 0 40 40" fill="none" xmlns="http://www.w3.org/2000/svg">
    <path
        d="M13.333 35V11.6667C13.333 10.1167 13.333 9.34174 13.5034 8.7059C13.9657 6.98044 15.3135 5.63271 17.0389 5.17037C17.6747 5 18.4497 5 19.9997 5C21.5496 5 22.3246 5 22.9604 5.17037C24.6859 5.63271 26.0336 6.98044 26.496 8.7059C26.6663 9.34174 26.6663 10.1167 26.6663 11.6667V35M8.66634 35H31.333C33.1998 35 34.1333 35 34.8463 34.6367C35.4735 34.3171 35.9835 33.8072 36.303 33.18C36.6663 32.4669 36.6663 31.5335 36.6663 29.6667V17C36.6663 15.1332 36.6663 14.1997 36.303 13.4867C35.9835 12.8595 35.4735 12.3496 34.8463 12.03C34.1333 11.6667 33.1999 11.6667 31.333 11.6667H8.66634C6.7995 11.6667 5.86608 11.6667 5.15304 12.03C4.52583 12.3496 4.0159 12.8595 3.69632 13.4867C3.33301 14.1997 3.33301 15.1332 3.33301 17V29.6667C3.33301 31.5335 3.33301 32.4669 3.69632 33.18C4.0159 33.8072 4.52583 34.3171 5.15304 34.6367C5.86608 35 6.7995 35 8.66634 35Z"
        stroke="#2C2B38" stroke-width="3" stroke-linecap="round" stroke-linejoin="round" />
</svg>