<svg width="40" height="40" viewBox="0 0 40 40" fill="none" xmlns="http://www.w3.org/2000/svg">
    <path
        d="M19.9997 35L19.8329 34.7499C18.6752 33.0133 18.0963 32.145 17.3315 31.5164C16.6544 30.9599 15.8743 30.5423 15.0357 30.2877C14.0884 30 13.0449 30 10.9577 30H8.66634C6.7995 30 5.86608 30 5.15304 29.6367C4.52583 29.3171 4.0159 28.8072 3.69632 28.18C3.33301 27.4669 3.33301 26.5335 3.33301 24.6667V10.3333C3.33301 8.46649 3.33301 7.53307 3.69632 6.82003C4.0159 6.19282 4.52583 5.68289 5.15304 5.36331C5.86608 5 6.7995 5 8.66634 5H9.33301C13.0667 5 14.9335 5 16.3596 5.72662C17.614 6.36578 18.6339 7.38565 19.2731 8.64006C19.9997 10.0661 19.9997 11.933 19.9997 15.6667M19.9997 35V15.6667M19.9997 35L20.1664 34.7499C21.3242 33.0133 21.903 32.145 22.6678 31.5164C23.3449 30.9599 24.1251 30.5423 24.9637 30.2877C25.9109 30 26.9545 30 29.0416 30H31.333C33.1998 30 34.1333 30 34.8463 29.6367C35.4735 29.3171 35.9835 28.8072 36.303 28.18C36.6663 27.4669 36.6663 26.5335 36.6663 24.6667V10.3333C36.6663 8.46649 36.6663 7.53307 36.303 6.82003C35.9835 6.19282 35.4735 5.68289 34.8463 5.36331C34.1333 5 33.1998 5 31.333 5H30.6663C26.9327 5 25.0658 5 23.6397 5.72662C22.3853 6.36578 21.3655 7.38565 20.7263 8.64006C19.9997 10.0661 19.9997 11.933 19.9997 15.6667"
        stroke="#2C2B38" stroke-width="3" stroke-linecap="round" stroke-linejoin="round" />
</svg>