<svg width="30" height="32" viewBox="0 0 30 32" fill="none" xmlns="http://www.w3.org/2000/svg">
<g clip-path="url(#clip0_2161_3509)">
<path fill-rule="evenodd" clip-rule="evenodd" d="M2.33398 0C1.7817 0 1.33398 0.447715 1.33398 1V31C1.33398 31.5523 1.7817 32 2.33398 32H27.0007C27.5529 32 28.0007 31.5523 28.0007 31V5.33333L22.6673 0H2.33398Z" fill="#E9F0FA"/>
<path fill-rule="evenodd" clip-rule="evenodd" d="M22.668 0V5.33333H28.0013L22.668 0Z" fill="#C2CDDE"/>
</g>
<rect y="14" width="29.3333" height="10" rx="1" fill="#4881F1"/>
<path d="M5.53178 22H3.56019V16.1818H5.57156C6.14921 16.1818 6.64542 16.2983 7.06019 16.5312C7.47686 16.7623 7.79693 17.0947 8.02042 17.5284C8.2439 17.9621 8.35565 18.4811 8.35565 19.0852C8.35565 19.6913 8.24296 20.2121 8.01758 20.6477C7.79409 21.0833 7.47118 21.4176 7.04883 21.6506C6.62837 21.8835 6.12269 22 5.53178 22ZM4.61417 21.0881H5.48065C5.88595 21.0881 6.22402 21.0142 6.49485 20.8665C6.76568 20.7169 6.96928 20.4943 7.10565 20.1989C7.24201 19.9015 7.31019 19.5303 7.31019 19.0852C7.31019 18.6402 7.24201 18.2708 7.10565 17.9773C6.96928 17.6818 6.76758 17.4612 6.50053 17.3153C6.23538 17.1676 5.90584 17.0938 5.5119 17.0938H4.61417V21.0881ZM14.5559 19.0909C14.5559 19.7178 14.4385 20.2547 14.2037 20.7017C13.9707 21.1468 13.6525 21.4877 13.2491 21.7244C12.8476 21.9612 12.3921 22.0795 11.8826 22.0795C11.3732 22.0795 10.9167 21.9612 10.5133 21.7244C10.1118 21.4858 9.79362 21.1439 9.55877 20.6989C9.32582 20.2519 9.20934 19.7159 9.20934 19.0909C9.20934 18.464 9.32582 17.928 9.55877 17.483C9.79362 17.036 10.1118 16.6941 10.5133 16.4574C10.9167 16.2206 11.3732 16.1023 11.8826 16.1023C12.3921 16.1023 12.8476 16.2206 13.2491 16.4574C13.6525 16.6941 13.9707 17.036 14.2037 17.483C14.4385 17.928 14.5559 18.464 14.5559 19.0909ZM13.4963 19.0909C13.4963 18.6496 13.4271 18.2775 13.2889 17.9744C13.1525 17.6695 12.9631 17.4394 12.7207 17.2841C12.4783 17.1269 12.1989 17.0483 11.8826 17.0483C11.5663 17.0483 11.287 17.1269 11.0446 17.2841C10.8021 17.4394 10.6118 17.6695 10.4735 17.9744C10.3372 18.2775 10.269 18.6496 10.269 19.0909C10.269 19.5322 10.3372 19.9053 10.4735 20.2102C10.6118 20.5133 10.8021 20.7434 11.0446 20.9006C11.287 21.0559 11.5663 21.1335 11.8826 21.1335C12.1989 21.1335 12.4783 21.0559 12.7207 20.9006C12.9631 20.7434 13.1525 20.5133 13.2889 20.2102C13.4271 19.9053 13.4963 19.5322 13.4963 19.0909ZM20.5325 18.1449H19.47C19.4397 17.9706 19.3838 17.8163 19.3024 17.6818C19.2209 17.5455 19.1196 17.4299 18.9984 17.3352C18.8772 17.2405 18.7389 17.1695 18.5836 17.1222C18.4302 17.0729 18.2645 17.0483 18.0865 17.0483C17.7702 17.0483 17.4899 17.1278 17.2456 17.2869C17.0012 17.4441 16.81 17.6752 16.6717 17.9801C16.5334 18.2831 16.4643 18.6534 16.4643 19.0909C16.4643 19.536 16.5334 19.911 16.6717 20.2159C16.8118 20.5189 17.0031 20.7481 17.2456 20.9034C17.4899 21.0568 17.7692 21.1335 18.0836 21.1335C18.2579 21.1335 18.4208 21.1108 18.5723 21.0653C18.7257 21.018 18.863 20.9489 18.9842 20.858C19.1073 20.767 19.2105 20.6553 19.2939 20.5227C19.3791 20.3902 19.4378 20.2386 19.47 20.0682L20.5325 20.0739C20.4927 20.3504 20.4065 20.6098 20.274 20.8523C20.1433 21.0947 19.9719 21.3087 19.7598 21.4943C19.5476 21.678 19.2995 21.822 19.0154 21.9261C18.7314 22.0284 18.416 22.0795 18.0694 22.0795C17.5581 22.0795 17.1016 21.9612 16.7001 21.7244C16.2986 21.4877 15.9823 21.1458 15.7512 20.6989C15.5202 20.2519 15.4047 19.7159 15.4047 19.0909C15.4047 18.464 15.5211 17.928 15.7541 17.483C15.987 17.036 16.3043 16.6941 16.7058 16.4574C17.1073 16.2206 17.5618 16.1023 18.0694 16.1023C18.3933 16.1023 18.6944 16.1477 18.9728 16.2386C19.2512 16.3295 19.4993 16.4631 19.7172 16.6392C19.935 16.8134 20.1139 17.0275 20.2541 17.2812C20.3961 17.5331 20.4889 17.821 20.5325 18.1449ZM22.2768 16.1818L23.5581 18.3125H23.6035L24.8904 16.1818H26.0922L24.2995 19.0909L26.1206 22H24.899L23.6035 19.8835H23.5581L22.2626 22H21.0467L22.8848 19.0909L21.0694 16.1818H22.2768Z" fill="white"/>
<defs>
<clipPath id="clip0_2161_3509">
<rect width="26.6667" height="32" fill="white" transform="translate(1.33398)"/>
</clipPath>
</defs>
</svg>
