<svg width="24" height="24" viewBox="0 0 24 24" fill="none" xmlns="http://www.w3.org/2000/svg">
    <path
        d="M2 14V15C2 17.2091 3.79086 19 6 19H6.77778C8.43463 19 9.77778 17.6569 9.77778 16V15C9.77778 13.8954 10.6732 13 11.7778 13H12.2222C13.3268 13 14.2222 13.8954 14.2222 15V16C14.2222 17.6569 15.5654 19 17.2222 19H18C20.2091 19 22 17.2091 22 15V14"
        stroke="#2C2B38" stroke-opacity="0.7" stroke-width="2" stroke-linecap="round" />
    <path
        d="M15 14H22L19.3404 6.4411C19.1307 5.84516 18.611 5.41227 17.987 5.31374V5.31374C16.9437 5.149 16 5.95537 16 7.01162V7.36842"
        stroke="#2C2B38" stroke-opacity="0.7" stroke-width="2" stroke-linecap="round" stroke-linejoin="round" />
    <path
        d="M9 14H2L4.65961 6.4411C4.8693 5.84516 5.38898 5.41227 6.013 5.31374V5.31374C7.05632 5.149 8 5.95537 8 7.01162V7.36842"
        stroke="#2C2B38" stroke-opacity="0.7" stroke-width="2" stroke-linecap="round" stroke-linejoin="round" />
</svg>