<svg width="40" height="40" viewBox="0 0 40 40" fill="none" xmlns="http://www.w3.org/2000/svg">
    <path
        d="M28.333 24.1667V19.1574C28.333 18.8583 28.333 18.7087 28.2875 18.5766C28.2472 18.4599 28.1815 18.3535 28.095 18.2653C27.9973 18.1655 27.8635 18.0986 27.596 17.9648L19.9997 14.1667M6.66634 15.8333V27.1777C6.66634 27.7976 6.66634 28.1075 6.76304 28.3788C6.84852 28.6187 6.98784 28.8358 7.17031 29.0135C7.3767 29.2145 7.65846 29.3436 8.22193 29.6019L18.8886 34.4908C19.2973 34.6781 19.5017 34.7718 19.7146 34.8087C19.9032 34.8415 20.0961 34.8415 20.2848 34.8087C20.4977 34.7718 20.702 34.6781 21.1108 34.4908L31.7774 29.6019C32.3409 29.3436 32.6226 29.2145 32.829 29.0135C33.0115 28.8358 33.1508 28.6187 33.2363 28.3788C33.333 28.1075 33.333 27.7976 33.333 27.1777V15.8333M3.33301 14.1667L19.4034 6.13148C19.622 6.02216 19.7313 5.9675 19.846 5.94599C19.9476 5.92694 20.0518 5.92694 20.1533 5.94599C20.268 5.9675 20.3773 6.02216 20.596 6.13148L36.6663 14.1667L20.596 22.2019C20.3773 22.3112 20.268 22.3658 20.1533 22.3874C20.0518 22.4064 19.9476 22.4064 19.846 22.3874C19.7313 22.3658 19.622 22.3112 19.4034 22.2019L3.33301 14.1667Z"
        stroke="white" stroke-width="3" stroke-linecap="round" stroke-linejoin="round" />
</svg>