<svg width="40" height="40" viewBox="0 0 40 40" fill="none" xmlns="http://www.w3.org/2000/svg">
<g clip-path="url(#clip0_2161_2292)">
<path d="M20.0008 0.799805C9.39678 0.799805 0.800781 9.39581 0.800781 19.9998C0.800781 30.6038 9.39678 39.1998 20.0008 39.1998C30.6048 39.1998 39.2008 30.6038 39.2008 19.9998C39.2008 9.39581 30.6048 0.799805 20.0008 0.799805Z" fill="#012F87"/>
<path d="M32 8V32H8V8H32Z" fill="white" fill-opacity="0.01"/>
<path fill-rule="evenodd" clip-rule="evenodd" d="M11 16C11 13.2386 13.2386 11 16 11H24C26.7614 11 29 13.2386 29 16V24C29 26.7614 26.7614 29 24 29H16C13.2386 29 11 26.7614 11 24V16ZM20 18C18.8954 18 18 18.8954 18 20C18 21.1046 18.8954 22 20 22C21.1046 22 22 21.1046 22 20C22 18.8954 21.1046 18 20 18ZM16 20C16 17.7909 17.7909 16 20 16C22.2091 16 24 17.7909 24 20C24 22.2091 22.2091 24 20 24C17.7909 24 16 22.2091 16 20ZM24.5 16.5C25.0523 16.5 25.5 16.0523 25.5 15.5C25.5 14.9477 25.0523 14.5 24.5 14.5C23.9477 14.5 23.5 14.9477 23.5 15.5C23.5 16.0523 23.9477 16.5 24.5 16.5Z" fill="#F7F9FC"/>
</g>
<defs>
<clipPath id="clip0_2161_2292">
<rect width="40" height="40" fill="white"/>
</clipPath>
</defs>
</svg>
