<svg width="40" height="40" viewBox="0 0 40 40" fill="none" xmlns="http://www.w3.org/2000/svg">
    <path
        d="M4.99967 26.6667V12C4.99967 10.1332 4.99967 9.19976 5.36299 8.48672C5.68256 7.85951 6.1925 7.34958 6.81971 7.03C7.53275 6.66669 8.46617 6.66669 10.333 6.66669H29.6663C31.5332 6.66669 32.4666 6.66669 33.1796 7.03C33.8069 7.34958 34.3168 7.85951 34.6364 8.48672C34.9997 9.19976 34.9997 10.1332 34.9997 12V26.6667H26.1042C25.6966 26.6667 25.4928 26.6667 25.301 26.7127C25.1309 26.7536 24.9683 26.8209 24.8192 26.9123C24.651 27.0154 24.5069 27.1595 24.2186 27.4477L24.1141 27.5523C23.8258 27.8406 23.6817 27.9847 23.5135 28.0878C23.3644 28.1791 23.2018 28.2465 23.0317 28.2873C22.8399 28.3334 22.6361 28.3334 22.2284 28.3334H17.7709C17.3633 28.3334 17.1594 28.3334 16.9676 28.2873C16.7976 28.2465 16.635 28.1791 16.4859 28.0878C16.3177 27.9847 16.1735 27.8406 15.8853 27.5523L15.7807 27.4477C15.4925 27.1595 15.3483 27.0154 15.1801 26.9123C15.031 26.8209 14.8685 26.7536 14.6984 26.7127C14.5066 26.6667 14.3028 26.6667 13.8951 26.6667H4.99967ZM4.99967 26.6667C4.0792 26.6667 3.33301 27.4129 3.33301 28.3334V28.8889C3.33301 29.9222 3.33301 30.4389 3.44659 30.8628C3.75481 32.0131 4.6533 32.9115 5.80361 33.2198C6.2275 33.3334 6.74415 33.3334 7.77745 33.3334H32.2219C33.2552 33.3334 33.7719 33.3334 34.1957 33.2198C35.346 32.9115 36.2445 32.0131 36.5528 30.8628C36.6663 30.4389 36.6663 29.9222 36.6663 28.8889C36.6663 28.3723 36.6663 28.1139 36.6096 27.902C36.4554 27.3268 36.0062 26.8776 35.431 26.7235C35.2191 26.6667 34.9608 26.6667 34.4441 26.6667H33.333"
        stroke="white" stroke-width="3" stroke-linecap="round" stroke-linejoin="round" />
</svg>