<svg width="30" height="32" viewBox="0 0 30 32" fill="none" xmlns="http://www.w3.org/2000/svg">
<g clip-path="url(#clip0_2161_421)">
<path fill-rule="evenodd" clip-rule="evenodd" d="M2.66797 0C2.11568 0 1.66797 0.447715 1.66797 1V31C1.66797 31.5523 2.11568 32 2.66797 32H27.3346C27.8869 32 28.3346 31.5523 28.3346 31V5.33333L23.0013 0H2.66797Z" fill="#E9F0FA"/>
<path fill-rule="evenodd" clip-rule="evenodd" d="M23.002 0V5.33333H28.3353L23.002 0Z" fill="#C2CDDE"/>
</g>
<rect x="0.333984" y="13.3333" width="29.3333" height="13.3333" rx="1" fill="#F14848"/>
<path d="M7.75746 23V17.1818H9.93928C10.3862 17.1818 10.7612 17.2652 11.0643 17.4318C11.3692 17.5985 11.5993 17.8277 11.7546 18.1193C11.9118 18.4091 11.9904 18.7386 11.9904 19.108C11.9904 19.4811 11.9118 19.8125 11.7546 20.1023C11.5974 20.392 11.3654 20.6203 11.0586 20.7869C10.7518 20.9517 10.3739 21.0341 9.92507 21.0341H8.47905V20.1676H9.78303C10.0444 20.1676 10.2584 20.1222 10.4251 20.0312C10.5917 19.9403 10.7148 19.8153 10.7944 19.6562C10.8758 19.4972 10.9165 19.3144 10.9165 19.108C10.9165 18.9015 10.8758 18.7197 10.7944 18.5625C10.7148 18.4053 10.5908 18.2831 10.4222 18.196C10.2556 18.107 10.0406 18.0625 9.77734 18.0625H8.81143V23H7.75746ZM14.8775 23H12.9059V17.1818H14.9173C15.4949 17.1818 15.9911 17.2983 16.4059 17.5312C16.8226 17.7623 17.1426 18.0947 17.3661 18.5284C17.5896 18.9621 17.7013 19.4811 17.7013 20.0852C17.7013 20.6913 17.5887 21.2121 17.3633 21.6477C17.1398 22.0833 16.8169 22.4176 16.3945 22.6506C15.9741 22.8835 15.4684 23 14.8775 23ZM13.9599 22.0881H14.8263C15.2317 22.0881 15.5697 22.0142 15.8406 21.8665C16.1114 21.7169 16.315 21.4943 16.4513 21.1989C16.5877 20.9015 16.6559 20.5303 16.6559 20.0852C16.6559 19.6402 16.5877 19.2708 16.4513 18.9773C16.315 18.6818 16.1133 18.4612 15.8462 18.3153C15.5811 18.1676 15.2515 18.0938 14.8576 18.0938H13.9599V22.0881ZM18.7028 23V17.1818H22.43V18.0653H19.7567V19.6449H22.1744V20.5284H19.7567V23H18.7028Z" fill="white"/>
<defs>
<clipPath id="clip0_2161_421">
<rect width="26.6667" height="32" fill="white" transform="translate(1.66797)"/>
</clipPath>
</defs>
</svg>
