<svg width="40" height="40" viewBox="0 0 40 40" fill="none" xmlns="http://www.w3.org/2000/svg">
    <path
        d="M3.33301 28.3333V28.083C3.33301 27.5555 3.33301 27.2918 3.37335 27.0348C3.40918 26.8067 3.46861 26.5829 3.5507 26.367C3.64315 26.1239 3.77401 25.8949 4.03571 25.4369L9.99967 15M3.33301 28.3333C3.33301 32.0152 6.31778 35 9.99967 35C13.6816 35 16.6663 32.0152 16.6663 28.3333M3.33301 28.3333V28C3.33301 27.5333 3.33301 27.2999 3.42384 27.1217C3.50373 26.9649 3.63121 26.8374 3.78802 26.7575C3.96628 26.6667 4.19963 26.6667 4.66634 26.6667H15.333C15.7997 26.6667 16.0331 26.6667 16.2113 26.7575C16.3681 26.8374 16.4956 26.9649 16.5755 27.1217C16.6663 27.2999 16.6663 27.5333 16.6663 28V28.3333M9.99967 15L15.9636 25.4369C16.2253 25.8949 16.3562 26.1239 16.4487 26.367C16.5307 26.5829 16.5902 26.8067 16.626 27.0348C16.6663 27.2918 16.6663 27.5555 16.6663 28.083V28.3333M9.99967 15L29.9997 11.6667M23.333 25V24.7497C23.333 24.2222 23.333 23.9584 23.3734 23.7015C23.4092 23.4734 23.4686 23.2496 23.5507 23.0337C23.6432 22.7906 23.774 22.5616 24.0357 22.1036L29.9997 11.6667M23.333 25C23.333 28.6819 26.3178 31.6667 29.9997 31.6667C33.6816 31.6667 36.6663 28.6819 36.6663 25M23.333 25V24.6667C23.333 24.2 23.333 23.9666 23.4238 23.7883C23.5037 23.6315 23.6312 23.5041 23.788 23.4242C23.9663 23.3333 24.1996 23.3333 24.6663 23.3333H35.333C35.7997 23.3333 36.0331 23.3333 36.2113 23.4242C36.3681 23.5041 36.4956 23.6315 36.5755 23.7883C36.6663 23.9666 36.6663 24.2 36.6663 24.6667V25M29.9997 11.6667L35.9636 22.1036C36.2253 22.5616 36.3562 22.7906 36.4487 23.0337C36.5307 23.2496 36.5902 23.4734 36.626 23.7015C36.6663 23.9584 36.6663 24.2222 36.6663 24.7497V25M19.9997 5V13.3333"
        stroke="white" stroke-width="3" stroke-linecap="round" stroke-linejoin="round" />
</svg>