<svg width="40" height="40" viewBox="0 0 40 40" fill="none" xmlns="http://www.w3.org/2000/svg">
<g clip-path="url(#clip0_2161_2309)">
<path d="M20.0008 0.799805C9.39678 0.799805 0.800781 9.39581 0.800781 19.9998C0.800781 30.6038 9.39678 39.1998 20.0008 39.1998C30.6048 39.1998 39.2008 30.6038 39.2008 19.9998C39.2008 9.39581 30.6048 0.799805 20.0008 0.799805Z" fill="#012F87"/>
<path d="M30 8V32H6V8H30Z" fill="white" fill-opacity="0.01"/>
<path fill-rule="evenodd" clip-rule="evenodd" d="M25.7773 12.9296C26.8652 12.4715 28.0315 13.3915 27.8394 14.5562L25.5705 28.3129C25.3517 29.6393 23.8949 30.4003 22.678 29.7394C21.6597 29.1863 20.1489 28.335 18.7873 27.4453C18.1074 27.001 16.0255 25.5764 16.2814 24.5623C16.5002 23.6952 20.0001 20.4373 22.0001 18.4998C22.7857 17.7387 22.4279 17.299 21.5001 17.9998C19.1985 19.738 15.5033 22.3809 14.2814 23.1248C13.2032 23.781 12.6403 23.8929 11.9689 23.781C10.7427 23.5767 9.60596 23.2602 8.67788 22.8755C7.42351 22.3555 7.48461 20.6318 8.67703 20.1297L25.7773 12.9296Z" fill="#F7F9FC"/>
</g>
<defs>
<clipPath id="clip0_2161_2309">
<rect width="40" height="40" fill="white"/>
</clipPath>
</defs>
</svg>
