<svg width="30" height="32" viewBox="0 0 30 32" fill="none" xmlns="http://www.w3.org/2000/svg">
<g clip-path="url(#clip0_2161_3483)">
<path fill-rule="evenodd" clip-rule="evenodd" d="M3.00195 0C2.44967 0 2.00195 0.447715 2.00195 1V31C2.00195 31.5523 2.44967 32 3.00195 32H27.6686C28.2209 32 28.6686 31.5523 28.6686 31V5.33333L23.3353 0H3.00195Z" fill="#E9F0FA"/>
<path fill-rule="evenodd" clip-rule="evenodd" d="M23.3359 0V5.33333H28.6693L23.3359 0Z" fill="#C2CDDE"/>
</g>
<rect x="0.667969" y="14" width="29.3333" height="10" rx="1" fill="#0F8105"/>
<path d="M9.16353 16.1818L10.4448 18.3125H10.4902L11.7772 16.1818H12.9789L11.1863 19.0909L13.0073 22H11.7857L10.4902 19.8835H10.4448L9.14933 22H7.93342L9.77148 19.0909L7.95614 16.1818H9.16353ZM13.8063 22V16.1818H14.8603V21.1165H17.4228V22H13.8063ZM21.4995 17.7812C21.473 17.5331 21.3612 17.34 21.1642 17.2017C20.9692 17.0634 20.7154 16.9943 20.4029 16.9943C20.1832 16.9943 19.9947 17.0275 19.8375 17.0938C19.6803 17.16 19.5601 17.25 19.4767 17.3636C19.3934 17.4773 19.3508 17.607 19.3489 17.7528C19.3489 17.8741 19.3764 17.9792 19.4313 18.0682C19.4881 18.1572 19.5648 18.233 19.6614 18.2955C19.758 18.3561 19.865 18.4072 19.9824 18.4489C20.0998 18.4905 20.2182 18.5256 20.3375 18.554L20.883 18.6903C21.1027 18.7415 21.3139 18.8106 21.5165 18.8977C21.7211 18.9848 21.9038 19.0947 22.0648 19.2273C22.2277 19.3598 22.3565 19.5199 22.4512 19.7074C22.5459 19.8949 22.5932 20.1146 22.5932 20.3665C22.5932 20.7074 22.5061 21.0076 22.3319 21.267C22.1576 21.5246 21.9057 21.7263 21.5762 21.8722C21.2485 22.0161 20.8517 22.0881 20.3858 22.0881C19.9332 22.0881 19.5402 22.018 19.2069 21.8778C18.8754 21.7377 18.6159 21.5331 18.4284 21.2642C18.2428 20.9953 18.1425 20.6676 18.1273 20.2812H19.1642C19.1794 20.4839 19.2419 20.6525 19.3517 20.7869C19.4616 20.9214 19.6046 21.0218 19.7807 21.0881C19.9587 21.1544 20.1576 21.1875 20.3773 21.1875C20.6065 21.1875 20.8072 21.1534 20.9796 21.0852C21.1538 21.0152 21.2902 20.9186 21.3887 20.7955C21.4872 20.6705 21.5373 20.5246 21.5392 20.358C21.5373 20.2064 21.4928 20.0814 21.4057 19.983C21.3186 19.8826 21.1964 19.7992 21.0392 19.733C20.8839 19.6648 20.7021 19.6042 20.4938 19.5511L19.8319 19.3807C19.3527 19.2576 18.9739 19.071 18.6955 18.821C18.419 18.5691 18.2807 18.2348 18.2807 17.8182C18.2807 17.4754 18.3735 17.1752 18.5591 16.9176C18.7466 16.66 19.0014 16.4602 19.3233 16.3182C19.6453 16.1742 20.0099 16.1023 20.4171 16.1023C20.83 16.1023 21.1917 16.1742 21.5023 16.3182C21.8148 16.4602 22.0601 16.6581 22.2381 16.9119C22.4161 17.1638 22.508 17.4536 22.5137 17.7812H21.4995Z" fill="white"/>
<defs>
<clipPath id="clip0_2161_3483">
<rect width="26.6667" height="32" fill="white" transform="translate(2.00195)"/>
</clipPath>
</defs>
</svg>
