<svg width="40" height="40" viewBox="0 0 40 40" fill="none" xmlns="http://www.w3.org/2000/svg">
<g clip-path="url(#clip0_2161_2323)">
<path d="M20.0008 0.799805C9.39678 0.799805 0.800781 9.39581 0.800781 19.9998C0.800781 30.6038 9.39678 39.1998 20.0008 39.1998C30.6048 39.1998 39.2008 30.6038 39.2008 19.9998C39.2008 9.39581 30.6048 0.799805 20.0008 0.799805Z" fill="#012F87"/>
<path d="M32 8V32H8V8H32Z" fill="white" fill-opacity="0.01"/>
<path fill-rule="evenodd" clip-rule="evenodd" d="M20 12.25C17.7857 12.25 15.4286 12.401 13.7517 12.537C12.0323 12.6766 10.6533 14.0061 10.4855 15.7352C10.3657 16.9693 10.25 18.5375 10.25 20C10.25 21.4625 10.3657 23.0307 10.4855 24.2648C10.6533 25.9939 12.0323 27.3234 13.7517 27.463C15.4286 27.599 17.7857 27.75 20 27.75C22.2143 27.75 24.5714 27.599 26.2483 27.463C27.9677 27.3234 29.3467 25.9939 29.5145 24.2648C29.6343 23.0307 29.75 21.4625 29.75 20C29.75 18.5375 29.6343 16.9693 29.5145 15.7352C29.3467 14.0061 27.9677 12.6766 26.2483 12.537C24.5714 12.401 22.2143 12.25 20 12.25ZM18.1981 17.1251C18.6801 16.8468 19.1553 17.1016 20.1056 17.6112C20.3724 17.7543 20.6573 17.9122 20.9568 18.0851C21.2589 18.2595 21.5403 18.4287 21.7995 18.5895C22.7115 19.1552 23.1675 19.4381 23.1673 19.9948C23.1671 20.5515 22.7109 20.834 21.7986 21.399C21.5399 21.5592 21.2585 21.7282 20.9558 21.903C20.6546 22.0769 20.3691 22.2353 20.1021 22.3786C19.1545 22.8875 18.6807 23.142 18.1985 22.8638C17.7162 22.5856 17.6992 22.0477 17.6653 20.9721C17.6557 20.6683 17.65 20.3416 17.65 19.9949C17.65 19.6494 17.6557 19.3238 17.6652 19.0209C17.6991 17.9426 17.716 17.4034 18.1981 17.1251Z" fill="#F7F9FC"/>
</g>
<defs>
<clipPath id="clip0_2161_2323">
<rect width="40" height="40" fill="white"/>
</clipPath>
</defs>
</svg>
